PathFileType	4	(X/Y/Z)	Patient4_TMGait_0pt2_01_left_03.trc.trc
DataRate	CameraRate	NumFrames	NumMarkers	Units	OrigDataRate	OrigDataStartFrame	OrigNumFrames
41.176470588235	41.176470588235	4	33	mm	41.176470588235	124	       141
Frame#	Time	Sacral			L.Shoulder			Chest			R.Shoulder			Neck			R.ASIS			L.ASIS			R.Thigh.Superior			R.Thigh.Lateral			R.Thigh.Inferior			R.Patella			L.Thigh.Superior			L.Thigh.Lateral			L.Thigh.Inferior			L.Patella			L.Shank.Superior			L.Shank.Lateral			L.Shank.Inferior			R.Shank.Superior			R.Shank.Lateral			R.Shank.Inferior			R.Heel			R.Midfoot.Superior			R.Midfoot.Lateral			R.Toe			L.Heel			L.Midfoot.Lateral			L.Midfoot.Superior			L.Toe			L.Elbow			L.Wrist			R.Elbow			R.Wrist			
		X1	Y1	Z1	X2	Y2	Z2	X3	Y3	Z3	X4	Y4	Z4	X5	Y5	Z5	X6	Y6	Z6	X7	Y7	Z7	X8	Y8	Z8	X9	Y9	Z9	X10	Y10	Z10	X11	Y11	Z11	X12	Y12	Z12	X13	Y13	Z13	X14	Y14	Z14	X15	Y15	Z15	X16	Y16	Z16	X17	Y17	Z17	X18	Y18	Z18	X19	Y19	Z19	X20	Y20	Z20	X21	Y21	Z21	X22	Y22	Z22	X23	Y23	Z23	X24	Y24	Z24	X25	Y25	Z25	X26	Y26	Z26	X27	Y27	Z27	X28	Y28	Z28	X29	Y29	Z29	X30	Y30	Z30	X31	Y31	Z31	X32	Y32	Z32	X33	Y33	Z33	

124	8.657142857143	812.299216168980	989.617329688828	598.064831420163	887.571816615720	1421.664921624685	377.839587949173	1044.709070672117	1367.732682324383	495.266780097522	1017.920863519485	1440.065235725588	685.842281971990	915.177958716488	1483.818495312948	529.346346566222	1063.730317172758	935.935765792202	655.130855287536	985.599617815548	960.741980794392	392.242204026941	1069.927517737508	724.648126275807	616.133461305910	984.997915720746	617.086306066352	685.640385845768	1035.968123103340	562.555683062326	592.538529862011	1021.036882630220	472.515232080382	595.817884000248	1070.852181473129	767.491313251189	407.847346505975	1006.583598706205	639.300607792724	336.949500792882	1112.693293254935	577.610536173070	384.414613609675	1130.133088217819	507.907511395628	380.806333971979	1107.357210884713	434.350226617047	367.642405622581	1025.054595741655	317.507271507996	308.806347933543	1097.164220512730	204.774778832944	358.600190953641	978.803191629716	387.090400822684	604.131775744733	898.141916343335	293.219061369776	671.633240871688	914.676533876878	197.421386372263	601.294386264916	752.366552249756	44.381980976323	580.051001526274	927.106961506408	95.901068569028	605.586378686149	839.211391372916	37.326398753468	650.217097917419	1046.842188339928	41.211310959530	629.776482287012	989.083398670527	37.737341117218	383.626706948776	1064.637050009199	38.862298366388	304.728440288300	1142.358027334656	107.300924925838	332.067135932443	1272.921631562879	65.948151252245	305.480754628201	747.253866888869	1094.736737192649	322.962474418633	715.949524385395	837.943726058300	369.852175038872	1243.210373342208	1181.158842752519	775.718268835623	1464.119343762137	1259.546489304979	669.054865106912	
125	8.681428571429	811.601313647200	989.199323169551	592.982733825661	886.308748294154	1421.026056645477	372.499016935660	1043.019559086870	1367.838127502218	490.838863842818	1014.837532608664	1440.229199586161	681.168855736111	912.681603576225	1483.405160124942	524.059116427568	1062.767415631287	935.944133727594	651.716059580517	986.187445669187	960.069764357516	388.402229054184	1067.558192961595	723.914513678590	613.516560737702	981.276720676272	617.284776607992	683.217665823506	1031.740410337692	561.947133543768	590.523415907982	1015.913836737163	472.347062706439	593.939434501087	1070.945997320439	766.065655251770	404.798625534451	1005.711063285824	638.070404495011	334.127256441575	1111.438946140248	575.977439572937	381.635178271945	1127.587443985504	506.055244941718	378.817180645342	1104.991767387524	432.489476744199	365.745571563673	1022.425243157990	315.871155590230	307.250598424175	1093.499990869939	203.171719549906	358.195728058475	973.878653191711	387.004609862140	602.700362535321	893.176449145143	293.402837637776	670.712715112573	909.726951382855	197.318420986955	600.719497620198	747.428585043855	44.127833052591	580.025994347483	922.182722210211	95.984161536715	605.598800465194	834.273339343526	37.223636516111	650.231350039098	1041.871961552418	41.618716531058	629.730275679789	984.157894556554	37.620382629934	383.769770254638	1059.853137625583	37.804340593554	304.936791105654	1137.959152010354	105.649088638451	332.321747969207	1268.316182278039	63.145013990353	306.136523234035	748.375348336555	1093.288323186003	315.683681072497	718.531422073648	835.993361333464	360.800054748326	1241.067084951742	1182.182609939978	770.865553984693	1460.478141842495	1262.559637131860	662.609699989470	
126	8.705714285714	810.990234653206	988.914252275923	587.668974757007	885.305436186379	1420.437300508643	366.945374561297	1041.563339166443	1368.009110205264	486.246752653998	1011.905691808512	1440.500318841359	676.313630199246	910.363484226869	1483.047697035243	518.591870856481	1061.849836442101	935.959756831486	648.081860332049	986.935064223324	959.535750123640	384.333180471261	1065.209892060251	723.158898843564	610.695144114211	977.637464899542	617.496512712185	680.623600320185	1027.610430251707	561.325745864954	588.331751417229	1010.944779907888	472.130234422022	591.915377541513	1071.371814379081	765.015715109162	401.844275903756	1005.606555281761	637.163808297156	331.160019244506	1110.799389814848	574.682239358599	379.022525858281	1125.797449990217	504.476744655308	376.884977288053	1103.162643618542	430.807728990210	363.914668343424	1020.051891272662	314.581816282438	305.671545549606	1089.747235063608	201.734086372217	357.822799404878	969.016348779529	386.903417839697	601.156711970919	888.249866458282	293.637296637230	669.684147319753	904.778198779910	197.225632738661	600.090187406348	742.509337208293	43.897675170917	579.984895950660	917.287841675798	96.109048587206	605.659783300789	829.348941079853	37.123879034894	650.222985684790	1036.914360426124	42.000789609270	629.688003047920	978.777661758913	37.617260783602	384.016422439785	1054.486915470573	36.949179080474	305.129715717332	1133.082164009744	104.175738170866	332.508402352233	1263.181744448808	60.538622584061	306.444368123203	750.244853905218	1091.724417432823	307.700613424213	722.441063635684	833.802118743922	350.517176163649	1238.851980340410	1183.265432697084	766.323715545574	1457.192462905288	1265.096938783965	656.958559939823	
127	8.730000000000	810.396531618565	988.773879038458	582.098140843408	884.608825938299	1419.942521027681	361.242361439395	1040.364412298916	1368.232357452796	481.547929445647	1009.172756575896	1440.847754256970	671.336482805514	908.285996776828	1482.765309114798	513.018037451139	1060.898331938338	935.974058833238	644.217989507287	987.783325704537	959.168808593262	380.019295686912	1062.856469626432	722.409395834177	607.670990353604	974.077875181516	617.728352044257	677.851327418800	1023.629305660691	560.705552289059	585.974562173345	1006.197396257278	471.857331306402	589.764407349484	1072.016612480375	764.329078510648	398.914006395182	1006.128241857354	636.545988304858	328.042545014350	1110.653303781135	573.708212621442	376.566558213025	1124.682932662753	503.191520054564	375.027594553568	1101.834189484609	429.342207174987	362.170603459266	1018.021197494630	313.615236730233	304.043965764266	1086.070576039941	200.502327872818	357.467151787451	964.276116872048	386.788338581579	599.506388924524	883.389266022688	293.938922574078	668.534926922368	899.852975613361	197.152265684785	599.403978319025	737.608536309419	43.729530461007	579.918500729122	912.414861616047	96.259334435930	605.739371812026	824.435003402656	37.050198196645	650.183367253438	1031.967000459799	42.316654973524	629.656488695160	973.245121231100	37.682211324463	384.266175029385	1048.892580569189	36.310370458898	305.257571688600	1128.006999838901	102.944704104578	332.630287732413	1257.843037717056	58.295088747807	306.498898384975	752.842654870016	1090.136280400325	299.114282653052	727.676206643332	831.497260308354	339.168405194156	1236.662159895955	1184.410319947440	762.071602622438	1454.361100758346	1267.234790939565	652.089805359914	
